# xmcd
#
# Track frame offsets: 
#        150
#        23513
#        38418
#        49956
#        66830
#        84649
#        96634
#        111580
#        122781
#        131059
#        146310
#        157667
#        170202
#        183328
#        198725
#        210737
#
# Disc length: 3107 seconds
#
# Revision: 0
# Processed by: cddbd v1.5.2PL0 Copyright (c) Steve Scherf et al.
# Submitted via: ExactAudioCopy v0.99pb5
#
DISCID=e90c2110
DTITLE=Please Don't Tell Me How The Story Ends: The Publishing Demos 1
DTITLE=968-72 - Kris Kristofferson
DYEAR=1900
DGENRE=Folk/Rock
TTITLE0=Me And Bobby McGee
TTITLE1=Please Don't Tell Me How The Story Ends
TTITLE2=Smile At Me Again
TTITLE3=The Lady's Not For Sale
TTITLE4=Border Lord
TTITLE5=Just The Other Side Of Nowhere
TTITLE6=Come Sundown
TTITLE7=Slow Down
TTITLE8=If You Don't Like Hank Williams
TTITLE9=Little Girl Lost
TTITLE10=Duvalier's Dream
TTITLE11=When I Loved Her
TTITLE12=Billy Dee
TTITLE13=Epitaph (Black And Blue)
TTITLE14=Enough For You
TTITLE15=Getting By, High And Strange
EXTD=
EXTT0=
EXTT1=
EXTT2=
EXTT3=
EXTT4=
EXTT5=
EXTT6=
EXTT7=
EXTT8=
EXTT9=
EXTT10=
EXTT11=
EXTT12=
EXTT13=
EXTT14=
EXTT15=
PLAYORDER=
